<svg xmlns="http://www.w3.org/2000/svg" data-name="Layer 1" viewBox="0 0 100 100" x="0px" y="0px"><path d="M50,92.5a2,2,0,0,1-1.47-.64L12.16,52.58A27.6,27.6,0,0,1,5,32.68a27,27,0,0,1,8.78-19c9.7-8.77,24.48-7.89,33.66,2L50,18.42l2.89-3.12a23.46,23.46,0,0,1,34.94,0h0v0a27.89,27.89,0,0,1,0,37.25L51.47,91.86A2,2,0,0,1,50,92.5ZM29.42,11.65a19.15,19.15,0,0,0-12.93,5A23.06,23.06,0,0,0,9,32.86a23.6,23.6,0,0,0,6.08,17L50,87.56,84.9,49.87a23.83,23.83,0,0,0,0-31.84l1.46-1.37L84.9,18a19.46,19.46,0,0,0-29.07,0l-4.36,4.71a2.08,2.08,0,0,1-2.94,0l-4-4.32A20.59,20.59,0,0,0,29.42,11.65Z"></path></svg>