<svg xmlns="http://www.w3.org/2000/svg" xmlns:xlink="http://www.w3.org/1999/xlink" viewBox="0 0 24 24" version="1.1" x="0px" y="0px"><title>share</title><desc>Created with Sketch.</desc><g stroke="none" stroke-width="1" fill="none" fill-rule="evenodd"><path d="M17,9 L18,9 C19.1045695,9 20,9.8954305 20,11 L20,21 C20,22.1045695 19.1045695,23 18,23 L6,23 C4.8954305,23 4,22.1045695 4,21 L4,11 C4,9.8954305 4.8954305,9 6,9 L7,9 C7.55228475,9 8,9.44771525 8,10 C8,10.5522847 7.55228475,11 7,11 L6,11 L6,21 L18,21 L18,11 L17,11 C16.4477153,11 16,10.5522847 16,10 C16,9.44771525 16.4477153,9 17,9 Z M13,5.41842712 L13,14 C13,14.5522847 12.5522847,15 12,15 C11.4477153,15 11,14.5522847 11,14 L11,5.41842712 L9.87867966,6.53974747 C9.48815536,6.93027176 8.85499039,6.93027176 8.46446609,6.53974747 C8.0739418,6.14922318 8.0739418,5.5160582 8.46446609,5.12553391 L11.2928932,2.29710678 C11.6834175,1.90658249 12.3165825,1.90658249 12.7071068,2.29710678 L15.5355339,5.12553391 C15.9260582,5.5160582 15.9260582,6.14922318 15.5355339,6.53974747 C15.1450096,6.93027176 14.5118446,6.93027176 14.1213203,6.53974747 L13,5.41842712 Z" fill="#000000" fill-rule="nonzero"></path></g></svg>